<svg version="1.1" xmlns="http://www.w3.org/2000/svg" xmlns:xlink="http://www.w3.org/1999/xlink" width="964" height="891"><defs/><g><g transform="translate(-406,-102) scale(1,1)"><path fill="none" stroke="#000000" d="M 416 112 L 640 112 L 640 983 L 416 983 L 416 112" stroke-miterlimit="10"/></g><g transform="translate(-406,-102) scale(1,1)"><path fill="#ffffff" stroke="none" d="M 416 112 L 416 134 L 432 134 L 443 123 L 443 112 L 416 112"/></g><g transform="translate(-406,-102) scale(1,1)"><path fill="none" stroke="#000000" d="M 416 112 L 416 134 L 432 134 L 443 123 L 443 112 L 416 112 L 416 112" stroke-miterlimit="10"/></g><g transform="translate(-406,-102) scale(1,1)"><g><path fill="none" stroke="none"/><text fill="#000000" stroke="none" font-family="Arial" font-size="13px" font-style="normal" font-weight="normal" text-decoration="none" x="427" y="129.5"></text></g></g><g transform="translate(-406,-102) scale(1,1)"><g><path fill="none" stroke="none"/><text fill="#000000" stroke="none" font-family="Arial" font-size="13px" font-style="normal" font-weight="bold" text-decoration="none" x="421" y="129.5"></text></g></g><g transform="translate(-406,-102) scale(1,1)"><path fill="none" stroke="#000000" d="M 656 112 L 880 112 L 880 983 L 656 983 L 656 112" stroke-miterlimit="10"/></g><g transform="translate(-406,-102) scale(1,1)"><path fill="#ffffff" stroke="none" d="M 656 112 L 656 134 L 672 134 L 683 123 L 683 112 L 656 112"/></g><g transform="translate(-406,-102) scale(1,1)"><path fill="none" stroke="#000000" d="M 656 112 L 656 134 L 672 134 L 683 123 L 683 112 L 656 112 L 656 112" stroke-miterlimit="10"/></g><g transform="translate(-406,-102) scale(1,1)"><g><path fill="none" stroke="none"/><text fill="#000000" stroke="none" font-family="Arial" font-size="13px" font-style="normal" font-weight="normal" text-decoration="none" x="667" y="129.5"></text></g></g><g transform="translate(-406,-102) scale(1,1)"><g><path fill="none" stroke="none"/><text fill="#000000" stroke="none" font-family="Arial" font-size="13px" font-style="normal" font-weight="bold" text-decoration="none" x="661" y="129.5"></text></g></g><g transform="translate(-406,-102) scale(1,1)"><path fill="none" stroke="#000000" d="M 896 112 L 1120 112 L 1120 983 L 896 983 L 896 112" stroke-miterlimit="10"/></g><g transform="translate(-406,-102) scale(1,1)"><path fill="#ffffff" stroke="none" d="M 896 112 L 896 134 L 912 134 L 923 123 L 923 112 L 896 112"/></g><g transform="translate(-406,-102) scale(1,1)"><path fill="none" stroke="#000000" d="M 896 112 L 896 134 L 912 134 L 923 123 L 923 112 L 896 112 L 896 112" stroke-miterlimit="10"/></g><g transform="translate(-406,-102) scale(1,1)"><g><path fill="none" stroke="none"/><text fill="#000000" stroke="none" font-family="Arial" font-size="13px" font-style="normal" font-weight="normal" text-decoration="none" x="907" y="129.5"></text></g></g><g transform="translate(-406,-102) scale(1,1)"><g><path fill="none" stroke="none"/><text fill="#000000" stroke="none" font-family="Arial" font-size="13px" font-style="normal" font-weight="bold" text-decoration="none" x="901" y="129.5"></text></g></g><g transform="translate(-406,-102) scale(1,1)"><path fill="none" stroke="#000000" d="M 1136 112 L 1360 112 L 1360 983 L 1136 983 L 1136 112" stroke-miterlimit="10"/></g><g transform="translate(-406,-102) scale(1,1)"><path fill="#ffffff" stroke="none" d="M 1136 112 L 1136 134 L 1152 134 L 1163 123 L 1163 112 L 1136 112"/></g><g transform="translate(-406,-102) scale(1,1)"><path fill="none" stroke="#000000" d="M 1136 112 L 1136 134 L 1152 134 L 1163 123 L 1163 112 L 1136 112 L 1136 112" stroke-miterlimit="10"/></g><g transform="translate(-406,-102) scale(1,1)"><g><path fill="none" stroke="none"/><text fill="#000000" stroke="none" font-family="Arial" font-size="13px" font-style="normal" font-weight="normal" text-decoration="none" x="1147" y="129.5"></text></g></g><g transform="translate(-406,-102) scale(1,1)"><g><path fill="none" stroke="none"/><text fill="#000000" stroke="none" font-family="Arial" font-size="13px" font-style="normal" font-weight="bold" text-decoration="none" x="1141" y="129.5"></text></g></g><g transform="translate(-406,-102) scale(1,1)"><path fill="#C0C0C0" stroke="none" d="M 519 160.5 C 519 155.2532944 523.2532944 151 528.5 151 C 533.7467056 151 538 155.2532944 538 160.5 C 538 165.7467056 533.7467056 170 528.5 170 C 523.2532944 170 519 165.7467056 519 160.5 Z" opacity="0.2"/></g><g transform="translate(-406,-102) scale(1,1)"><path fill="#000000" stroke="none" d="M 512 153.5 C 512 148.2532944 516.2532944 144 521.5 144 C 526.7467056 144 531 148.2532944 531 153.5 C 531 158.7467056 526.7467056 163 521.5 163 C 516.2532944 163 512 158.7467056 512 153.5 Z"/></g><g transform="translate(-406,-102) scale(1,1)"><path fill="#C0C0C0" stroke="none" d="M 505 199 L 558 199 Q 568 199 568 209 L 568 255 Q 568 265 558 265 L 505 265 Q 495 265 495 255 L 495 209 Q 495 199 505 199 Z" opacity="0.2"/></g><g transform="translate(-406,-102) scale(1,1)"><path fill="#ffffff" stroke="none" d="M 498 192 L 551 192 Q 561 192 561 202 L 561 248 Q 561 258 551 258 L 498 258 Q 488 258 488 248 L 488 202 Q 488 192 498 192 Z"/></g><g transform="translate(-406,-102) scale(1,1)"><path fill="none" stroke="#000000" d="M 498 192 L 551 192 Q 561 192 561 202 L 561 248 Q 561 258 551 258 L 498 258 Q 488 258 488 248 L 488 202 Q 488 192 498 192 Z" stroke-miterlimit="10"/></g><g transform="translate(-406,-102) scale(1,1)"><g><path fill="none" stroke="none"/><text fill="#000000" stroke="none" font-family="Arial" font-size="13px" font-style="normal" font-weight="bold" text-decoration="none" x="500.5" y="211.5">Connect</text><text fill="#000000" stroke="none" font-family="Arial" font-size="13px" font-style="normal" font-weight="bold" text-decoration="none" x="517" y="224.5">To</text><text fill="#000000" stroke="none" font-family="Arial" font-size="13px" font-style="normal" font-weight="bold" text-decoration="none" x="495" y="237.5">Consumer</text></g></g><g transform="translate(-406,-102) scale(1,1)"><g><path fill="none" stroke="none"/><text fill="#000000" stroke="none" font-family="Arial" font-size="20px" font-style="normal" font-weight="normal" text-decoration="none" x="485" y="137">Producer</text></g></g><g transform="translate(-406,-102) scale(1,1)"><g><path fill="none" stroke="none"/><text fill="#000000" stroke="none" font-family="Arial" font-size="20px" font-style="normal" font-weight="normal" text-decoration="none" x="725" y="137">Generator</text></g></g><g transform="translate(-406,-102) scale(1,1)"><g><path fill="none" stroke="none"/><text fill="#000000" stroke="none" font-family="Arial" font-size="20px" font-style="normal" font-weight="normal" text-decoration="none" x="965" y="137">Consumer</text></g></g><g transform="translate(-406,-102) scale(1,1)"><g><path fill="none" stroke="none"/><text fill="#000000" stroke="none" font-family="Arial" font-size="20px" font-style="normal" font-weight="normal" text-decoration="none" x="1205" y="137">Evaluator</text></g></g><g transform="translate(-406,-102) scale(1,1)"><path fill="#C0C0C0" stroke="none" d="M 473 327 L 586 327 Q 596 327 596 337 L 596 365 Q 596 375 586 375 L 473 375 Q 463 375 463 365 L 463 337 Q 463 327 473 327 Z" opacity="0.2"/></g><g transform="translate(-406,-102) scale(1,1)"><path fill="#ffffff" stroke="none" d="M 466 320 L 579 320 Q 589 320 589 330 L 589 358 Q 589 368 579 368 L 466 368 Q 456 368 456 358 L 456 330 Q 456 320 466 320 Z"/></g><g transform="translate(-406,-102) scale(1,1)"><path fill="none" stroke="#000000" d="M 466 320 L 579 320 Q 589 320 589 330 L 589 358 Q 589 368 579 368 L 466 368 Q 456 368 456 358 L 456 330 Q 456 320 466 320 Z" stroke-miterlimit="10"/></g><g transform="translate(-406,-102) scale(1,1)"><g><path fill="none" stroke="none"/><text fill="#000000" stroke="none" font-family="Arial" font-size="13px" font-style="normal" font-weight="bold" text-decoration="none" x="464" y="339.5">Request Expression</text></g></g><g transform="translate(-406,-102) scale(1,1)"><path fill="#C0C0C0" stroke="none" d="M 721 327 L 832 327 Q 842 327 842 337 L 842 365 Q 842 375 832 375 L 721 375 Q 711 375 711 365 L 711 337 Q 711 327 721 327 Z" opacity="0.2"/></g><g transform="translate(-406,-102) scale(1,1)"><path fill="#ffffff" stroke="none" d="M 714 320 L 825 320 Q 835 320 835 330 L 835 358 Q 835 368 825 368 L 714 368 Q 704 368 704 358 L 704 330 Q 704 320 714 320 Z"/></g><g transform="translate(-406,-102) scale(1,1)"><path fill="none" stroke="#000000" d="M 714 320 L 825 320 Q 835 320 835 330 L 835 358 Q 835 368 825 368 L 714 368 Q 704 368 704 358 L 704 330 Q 704 320 714 320 Z" stroke-miterlimit="10"/></g><g transform="translate(-406,-102) scale(1,1)"><g><path fill="none" stroke="none"/><text fill="#000000" stroke="none" font-family="Arial" font-size="13px" font-style="normal" font-weight="bold" text-decoration="none" x="711.5" y="339.5">Receive Expression</text></g></g><g transform="translate(-406,-102) scale(1,1)"><path fill="none" stroke="#000000" d="M 590 344 L 703 344" stroke-miterlimit="10"/></g><g transform="translate(-406,-102) scale(1,1)"><path fill="none" stroke="#000000" d="M 692.8373251423759 348.209517756016 L 703 344 L 692.8373251423758 339.790482243984" stroke-miterlimit="10"/></g><g transform="translate(-406,-102) scale(1,1)"><g><path fill="none" stroke="none"/><text fill="#000000" stroke="none" font-family="Arial" font-size="13px" font-style="normal" font-weight="normal" text-decoration="none" x="598" y="336">optional operator</text></g></g><g transform="translate(-406,-102) scale(1,1)"><path fill="#C0C0C0" stroke="none" d="M 735 427.5 L 771.5 407 L 807 427.5 L 771.5 447 L 735 427.5" opacity="0.2"/></g><g transform="translate(-406,-102) scale(1,1)"><path fill="#ffffff" stroke="none" d="M 728 420 L 764 400 L 800 420 L 764 440 L 728 420"/></g><g transform="translate(-406,-102) scale(1,1)"><path fill="none" stroke="#000000" d="M 728 420 L 764 400 L 800 420 L 764 440 L 728 420 L 728 420" stroke-miterlimit="10"/></g><g transform="translate(-406,-102) scale(1,1)"><path fill="none" stroke="#000000" d="M 767 369 L 765 399" stroke-miterlimit="10"/></g><g transform="translate(-406,-102) scale(1,1)"><path fill="none" stroke="#000000" d="M 761.4758167371174 388.5798209070276 L 765 399 L 769.8762054144906 389.13984681885256" stroke-miterlimit="10"/></g><g transform="translate(-406,-102) scale(1,1)"><path fill="#C0C0C0" stroke="none" d="M 681 479 L 743 479 Q 753 479 753 489 L 753 535 Q 753 545 743 545 L 681 545 Q 671 545 671 535 L 671 489 Q 671 479 681 479 Z" opacity="0.2"/></g><g transform="translate(-406,-102) scale(1,1)"><path fill="#ffffff" stroke="none" d="M 674 472 L 736 472 Q 746 472 746 482 L 746 528 Q 746 538 736 538 L 674 538 Q 664 538 664 528 L 664 482 Q 664 472 674 472 Z"/></g><g transform="translate(-406,-102) scale(1,1)"><path fill="none" stroke="#000000" d="M 674 472 L 736 472 Q 746 472 746 482 L 746 528 Q 746 538 736 538 L 674 538 Q 664 538 664 528 L 664 482 Q 664 472 674 472 Z" stroke-miterlimit="10"/></g><g transform="translate(-406,-102) scale(1,1)"><g><path fill="none" stroke="none"/><text fill="#000000" stroke="none" font-family="Arial" font-size="13px" font-style="normal" font-weight="bold" text-decoration="none" x="678.5" y="491.5">Generate</text><text fill="#000000" stroke="none" font-family="Arial" font-size="13px" font-style="normal" font-weight="bold" text-decoration="none" x="681" y="504.5">Random</text><text fill="#000000" stroke="none" font-family="Arial" font-size="13px" font-style="normal" font-weight="bold" text-decoration="none" x="680" y="517.5">Operator</text></g></g><g transform="translate(-406,-102) scale(1,1)"><path fill="none" stroke="#000000" d="M 728 416 L 696 416 L 696 472" stroke-miterlimit="10"/></g><g transform="translate(-406,-102) scale(1,1)"><path fill="none" stroke="#000000" d="M 691.790482243984 461.83732514237585 L 696 472 L 700.209517756016 461.83732514237585" stroke-miterlimit="10"/></g><g transform="translate(-406,-102) scale(1,1)"><g><path fill="none" stroke="none"/><text fill="#000000" stroke="none" font-family="Arial" font-size="13px" font-style="normal" font-weight="normal" text-decoration="none" x="672" y="426">no</text></g></g><g transform="translate(-406,-102) scale(1,1)"><path fill="#C0C0C0" stroke="none" d="M 735 595.5 L 771.5 575 L 807 595.5 L 771.5 615 L 735 595.5" opacity="0.2"/></g><g transform="translate(-406,-102) scale(1,1)"><path fill="#ffffff" stroke="none" d="M 728 588 L 764 568 L 800 588 L 764 608 L 728 588"/></g><g transform="translate(-406,-102) scale(1,1)"><path fill="none" stroke="#000000" d="M 728 588 L 764 568 L 800 588 L 764 608 L 728 588 L 728 588" stroke-miterlimit="10"/></g><g transform="translate(-406,-102) scale(1,1)"><path fill="none" stroke="#000000" d="M 764 441 L 764 567" stroke-miterlimit="10"/></g><g transform="translate(-406,-102) scale(1,1)"><path fill="none" stroke="#000000" d="M 759.790482243984 556.8373251423759 L 764 567 L 768.209517756016 556.8373251423759" stroke-miterlimit="10"/></g><g transform="translate(-406,-102) scale(1,1)"><g><path fill="none" stroke="none"/><text fill="#000000" stroke="none" font-family="Arial" font-size="13px" font-style="normal" font-weight="normal" text-decoration="none" x="768" y="510">yes</text></g></g><g transform="translate(-406,-102) scale(1,1)"><g><path fill="none" stroke="none"/></g></g><g transform="translate(-406,-102) scale(1,1)"><g><path fill="none" stroke="none"/></g></g><g transform="translate(-406,-102) scale(1,1)"><g><path fill="none" stroke="none"/></g></g><g transform="translate(-406,-102) scale(1,1)"><g><path fill="none" stroke="none"/><text fill="#000000" stroke="none" font-family="Arial" font-size="13px" font-style="normal" font-weight="normal" text-decoration="none" x="805" y="416">Given</text><text fill="#000000" stroke="none" font-family="Arial" font-size="13px" font-style="normal" font-weight="normal" text-decoration="none" x="805" y="429">Operator?</text></g></g><g transform="translate(-406,-102) scale(1,1)"><path fill="none" stroke="#000000" d="M 729 539 L 749 567" stroke-miterlimit="10"/></g><g transform="translate(-406,-102) scale(1,1)"><path fill="none" stroke="#000000" d="M 739.6676397266908 561.1770238082953 L 749 567 L 746.5184907181093 556.2835588144249" stroke-miterlimit="10"/></g><g transform="translate(-406,-102) scale(1,1)"><g><path fill="none" stroke="none"/><text fill="#000000" stroke="none" font-family="Arial" font-size="13px" font-style="normal" font-weight="normal" text-decoration="none" x="813" y="586">Valid</text><text fill="#000000" stroke="none" font-family="Arial" font-size="13px" font-style="normal" font-weight="normal" text-decoration="none" x="813" y="599">Operator?</text></g></g><g transform="translate(-406,-102) scale(1,1)"><path fill="#C0C0C0" stroke="none" d="M 681 639 L 741 639 Q 751 639 751 649 L 751 682 Q 751 692 741 692 L 681 692 Q 671 692 671 682 L 671 649 Q 671 639 681 639 Z" opacity="0.2"/></g><g transform="translate(-406,-102) scale(1,1)"><path fill="#ffffff" stroke="none" d="M 674 632 L 734 632 Q 744 632 744 642 L 744 675 Q 744 685 734 685 L 674 685 Q 664 685 664 675 L 664 642 Q 664 632 674 632 Z"/></g><g transform="translate(-406,-102) scale(1,1)"><path fill="none" stroke="#000000" d="M 674 632 L 734 632 Q 744 632 744 642 L 744 675 Q 744 685 734 685 L 674 685 Q 664 685 664 675 L 664 642 Q 664 632 674 632 Z" stroke-miterlimit="10"/></g><g transform="translate(-406,-102) scale(1,1)"><g><path fill="none" stroke="none"/><text fill="#000000" stroke="none" font-family="Arial" font-size="13px" font-style="normal" font-weight="bold" text-decoration="none" x="686.5" y="651.5">Throw</text><text fill="#000000" stroke="none" font-family="Arial" font-size="13px" font-style="normal" font-weight="bold" text-decoration="none" x="690" y="664.5">Error</text></g></g><g transform="translate(-406,-102) scale(1,1)"><path fill="none" stroke="#000000" d="M 728 584 L 704 584 L 704 632" stroke-miterlimit="10"/></g><g transform="translate(-406,-102) scale(1,1)"><path fill="none" stroke="#000000" d="M 699.790482243984 621.8373251423759 L 704 632 L 708.209517756016 621.8373251423759" stroke-miterlimit="10"/></g><g transform="translate(-406,-102) scale(1,1)"><g><path fill="none" stroke="none"/><text fill="#000000" stroke="none" font-family="Arial" font-size="13px" font-style="normal" font-weight="normal" text-decoration="none" x="684" y="593">no</text></g></g><g transform="translate(-406,-102) scale(1,1)"><path fill="#C0C0C0" stroke="none" d="M 745 711 L 802 711 Q 812 711 812 721 L 812 767 Q 812 777 802 777 L 745 777 Q 735 777 735 767 L 735 721 Q 735 711 745 711 Z" opacity="0.2"/></g><g transform="translate(-406,-102) scale(1,1)"><path fill="#ffffff" stroke="none" d="M 738 704 L 795 704 Q 805 704 805 714 L 805 760 Q 805 770 795 770 L 738 770 Q 728 770 728 760 L 728 714 Q 728 704 738 704 Z"/></g><g transform="translate(-406,-102) scale(1,1)"><path fill="none" stroke="#000000" d="M 738 704 L 795 704 Q 805 704 805 714 L 805 760 Q 805 770 795 770 L 738 770 Q 728 770 728 760 L 728 714 Q 728 704 738 704 Z" stroke-miterlimit="10"/></g><g transform="translate(-406,-102) scale(1,1)"><g><path fill="none" stroke="none"/><text fill="#000000" stroke="none" font-family="Arial" font-size="13px" font-style="normal" font-weight="bold" text-decoration="none" x="740" y="723.5">Generate</text><text fill="#000000" stroke="none" font-family="Arial" font-size="13px" font-style="normal" font-weight="bold" text-decoration="none" x="745" y="736.5">random</text><text fill="#000000" stroke="none" font-family="Arial" font-size="13px" font-style="normal" font-weight="bold" text-decoration="none" x="735" y="749.5">expression</text></g></g><g transform="translate(-406,-102) scale(1,1)"><path fill="none" stroke="#000000" d="M 764 609 L 766 703" stroke-miterlimit="10"/></g><g transform="translate(-406,-102) scale(1,1)"><path fill="none" stroke="#000000" d="M 761.5752565323953 692.9291685921227 L 766 703 L 769.9923870697424 692.7500807083493" stroke-miterlimit="10"/></g><g transform="translate(-406,-102) scale(1,1)"><g><path fill="none" stroke="none"/><text fill="#000000" stroke="none" font-family="Arial" font-size="13px" font-style="normal" font-weight="normal" text-decoration="none" x="769" y="662">yes</text></g></g><g transform="translate(-406,-102) scale(1,1)"><path fill="#C0C0C0" stroke="none" d="M 497 519 L 556 519 Q 566 519 566 529 L 566 562 Q 566 572 556 572 L 497 572 Q 487 572 487 562 L 487 529 Q 487 519 497 519 Z" opacity="0.2"/></g><g transform="translate(-406,-102) scale(1,1)"><path fill="#ffffff" stroke="none" d="M 490 512 L 549 512 Q 559 512 559 522 L 559 555 Q 559 565 549 565 L 490 565 Q 480 565 480 555 L 480 522 Q 480 512 490 512 Z"/></g><g transform="translate(-406,-102) scale(1,1)"><path fill="none" stroke="#000000" d="M 490 512 L 549 512 Q 559 512 559 522 L 559 555 Q 559 565 549 565 L 490 565 Q 480 565 480 555 L 480 522 Q 480 512 490 512 Z" stroke-miterlimit="10"/></g><g transform="translate(-406,-102) scale(1,1)"><g><path fill="none" stroke="none"/><text fill="#000000" stroke="none" font-family="Arial" font-size="13px" font-style="normal" font-weight="bold" text-decoration="none" x="509" y="531.5">Log</text><text fill="#000000" stroke="none" font-family="Arial" font-size="13px" font-style="normal" font-weight="bold" text-decoration="none" x="487" y="544.5">Expression</text></g></g><g transform="translate(-406,-102) scale(1,1)"><path fill="none" stroke="#000000" d="M 728 737 L 632 737 L 632 538 L 559 538" stroke-miterlimit="10"/></g><g transform="translate(-406,-102) scale(1,1)"><path fill="none" stroke="#000000" d="M 569.1626748576241 533.790482243984 L 559 538 L 569.1626748576241 542.209517756016" stroke-miterlimit="10"/></g><g transform="translate(-406,-102) scale(1,1)"><g><path fill="none" stroke="none"/><text fill="#000000" stroke="none" font-family="Arial" font-size="13px" font-style="normal" font-weight="normal" text-decoration="none" x="664" y="732">expression</text></g></g><g transform="translate(-406,-102) scale(1,1)"><path fill="#C0C0C0" stroke="none" d="M 497 599 L 556 599 Q 566 599 566 609 L 566 642 Q 566 652 556 652 L 497 652 Q 487 652 487 642 L 487 609 Q 487 599 497 599 Z" opacity="0.2"/></g><g transform="translate(-406,-102) scale(1,1)"><path fill="#ffffff" stroke="none" d="M 490 592 L 549 592 Q 559 592 559 602 L 559 635 Q 559 645 549 645 L 490 645 Q 480 645 480 635 L 480 602 Q 480 592 490 592 Z"/></g><g transform="translate(-406,-102) scale(1,1)"><path fill="none" stroke="#000000" d="M 490 592 L 549 592 Q 559 592 559 602 L 559 635 Q 559 645 549 645 L 490 645 Q 480 645 480 635 L 480 602 Q 480 592 490 592 Z" stroke-miterlimit="10"/></g><g transform="translate(-406,-102) scale(1,1)"><g><path fill="none" stroke="none"/><text fill="#000000" stroke="none" font-family="Arial" font-size="13px" font-style="normal" font-weight="bold" text-decoration="none" x="495.5" y="611.5">Produce</text><text fill="#000000" stroke="none" font-family="Arial" font-size="13px" font-style="normal" font-weight="bold" text-decoration="none" x="487" y="624.5">Expression</text></g></g><g transform="translate(-406,-102) scale(1,1)"><path fill="none" stroke="#000000" d="M 519 566 L 519 591" stroke-miterlimit="10"/></g><g transform="translate(-406,-102) scale(1,1)"><path fill="none" stroke="#000000" d="M 514.790482243984 580.8373251423759 L 519 591 L 523.209517756016 580.8373251423759" stroke-miterlimit="10"/></g><g transform="translate(-406,-102) scale(1,1)"><path fill="#C0C0C0" stroke="none" d="M 969 327 L 1056 327 Q 1066 327 1066 337 L 1066 357 Q 1066 367 1056 367 L 969 367 Q 959 367 959 357 L 959 337 Q 959 327 969 327 Z" opacity="0.2"/></g><g transform="translate(-406,-102) scale(1,1)"><path fill="#ffffff" stroke="none" d="M 962 320 L 1049 320 Q 1059 320 1059 330 L 1059 350 Q 1059 360 1049 360 L 962 360 Q 952 360 952 350 L 952 330 Q 952 320 962 320 Z"/></g><g transform="translate(-406,-102) scale(1,1)"><path fill="none" stroke="#000000" d="M 962 320 L 1049 320 Q 1059 320 1059 330 L 1059 350 Q 1059 360 1049 360 L 962 360 Q 952 360 952 350 L 952 330 Q 952 320 962 320 Z" stroke-miterlimit="10"/></g><g transform="translate(-406,-102) scale(1,1)"><g><path fill="none" stroke="none"/><text fill="#000000" stroke="none" font-family="Arial" font-size="13px" font-style="normal" font-weight="bold" text-decoration="none" x="960.5" y="339.5">Log Expression</text></g></g><g transform="translate(-406,-102) scale(1,1)"><path fill="none" stroke="#000000" d="M 559 618 L 616 618 L 616 784 L 904 784 L 904 344 L 952 344" stroke-miterlimit="10"/></g><g transform="translate(-406,-102) scale(1,1)"><path fill="none" stroke="#000000" d="M 941.8373251423759 348.209517756016 L 952 344 L 941.8373251423758 339.790482243984" stroke-miterlimit="10"/></g><g transform="translate(-406,-102) scale(1,1)"><g><path fill="none" stroke="none"/><text fill="#000000" stroke="none" font-family="Arial" font-size="13px" font-style="normal" font-weight="normal" text-decoration="none" x="560" y="612">expression</text></g></g><g transform="translate(-406,-102) scale(1,1)"><path fill="#C0C0C0" stroke="none" d="M 985 391 L 1040 391 Q 1050 391 1050 401 L 1050 434 Q 1050 444 1040 444 L 985 444 Q 975 444 975 434 L 975 401 Q 975 391 985 391 Z" opacity="0.2"/></g><g transform="translate(-406,-102) scale(1,1)"><path fill="#ffffff" stroke="none" d="M 978 384 L 1033 384 Q 1043 384 1043 394 L 1043 427 Q 1043 437 1033 437 L 978 437 Q 968 437 968 427 L 968 394 Q 968 384 978 384 Z"/></g><g transform="translate(-406,-102) scale(1,1)"><path fill="none" stroke="#000000" d="M 978 384 L 1033 384 Q 1043 384 1043 394 L 1043 427 Q 1043 437 1033 437 L 978 437 Q 968 437 968 427 L 968 394 Q 968 384 978 384 Z" stroke-miterlimit="10"/></g><g transform="translate(-406,-102) scale(1,1)"><g><path fill="none" stroke="none"/><text fill="#000000" stroke="none" font-family="Arial" font-size="13px" font-style="normal" font-weight="bold" text-decoration="none" x="981.5" y="403.5">Request</text><text fill="#000000" stroke="none" font-family="Arial" font-size="13px" font-style="normal" font-weight="bold" text-decoration="none" x="975" y="416.5">Evaluation</text></g></g><g transform="translate(-406,-102) scale(1,1)"><path fill="none" stroke="#000000" d="M 1005 361 L 1005 383" stroke-miterlimit="10"/></g><g transform="translate(-406,-102) scale(1,1)"><path fill="none" stroke="#000000" d="M 1000.790482243984 372.83732514237585 L 1005 383 L 1009.209517756016 372.83732514237585" stroke-miterlimit="10"/></g><g transform="translate(-406,-102) scale(1,1)"><path fill="#C0C0C0" stroke="none" d="M 1225 327 L 1278 327 Q 1288 327 1288 337 L 1288 383 Q 1288 393 1278 393 L 1225 393 Q 1215 393 1215 383 L 1215 337 Q 1215 327 1225 327 Z" opacity="0.2"/></g><g transform="translate(-406,-102) scale(1,1)"><path fill="#ffffff" stroke="none" d="M 1218 320 L 1271 320 Q 1281 320 1281 330 L 1281 376 Q 1281 386 1271 386 L 1218 386 Q 1208 386 1208 376 L 1208 330 Q 1208 320 1218 320 Z"/></g><g transform="translate(-406,-102) scale(1,1)"><path fill="none" stroke="#000000" d="M 1218 320 L 1271 320 Q 1281 320 1281 330 L 1281 376 Q 1281 386 1271 386 L 1218 386 Q 1208 386 1208 376 L 1208 330 Q 1208 320 1218 320 Z" stroke-miterlimit="10"/></g><g transform="translate(-406,-102) scale(1,1)"><g><path fill="none" stroke="none"/><text fill="#000000" stroke="none" font-family="Arial" font-size="13px" font-style="normal" font-weight="bold" text-decoration="none" x="1221" y="339.5">Validate</text><text fill="#000000" stroke="none" font-family="Arial" font-size="13px" font-style="normal" font-weight="bold" text-decoration="none" x="1215" y="352.5">Arithmetic</text><text fill="#000000" stroke="none" font-family="Arial" font-size="13px" font-style="normal" font-weight="bold" text-decoration="none" x="1229.5" y="365.5">Form</text></g></g><g transform="translate(-406,-102) scale(1,1)"><path fill="#C0C0C0" stroke="none" d="M 1223 435.5 L 1255.5 415 L 1287 435.5 L 1255.5 455 L 1223 435.5" opacity="0.2"/></g><g transform="translate(-406,-102) scale(1,1)"><path fill="#ffffff" stroke="none" d="M 1216 428 L 1248 408 L 1280 428 L 1248 448 L 1216 428"/></g><g transform="translate(-406,-102) scale(1,1)"><path fill="none" stroke="#000000" d="M 1216 428 L 1248 408 L 1280 428 L 1248 448 L 1216 428 L 1216 428" stroke-miterlimit="10"/></g><g transform="translate(-406,-102) scale(1,1)"><g><path fill="none" stroke="none"/><text fill="#000000" stroke="none" font-family="Arial" font-size="13px" font-style="normal" font-weight="normal" text-decoration="none" x="1293" y="434">Valid?</text></g></g><g transform="translate(-406,-102) scale(1,1)"><path fill="none" stroke="#000000" d="M 1000 437 L 1000 456 L 1088 456 L 1088 352 L 1208 352" stroke-miterlimit="10"/></g><g transform="translate(-406,-102) scale(1,1)"><path fill="none" stroke="#000000" d="M 1197.837325142376 356.209517756016 L 1208 352 L 1197.837325142376 347.790482243984" stroke-miterlimit="10"/></g><g transform="translate(-406,-102) scale(1,1)"><g><path fill="none" stroke="none"/><text fill="#000000" stroke="none" font-family="Arial" font-size="13px" font-style="normal" font-weight="normal" text-decoration="none" x="1016" y="469">expression</text></g></g><g transform="translate(-406,-102) scale(1,1)"><path fill="none" stroke="#000000" d="M 1246 387 L 1247 407" stroke-miterlimit="10"/></g><g transform="translate(-406,-102) scale(1,1)"><path fill="none" stroke="#000000" d="M 1242.2882345314658 397.06021800191127 L 1247 407 L 1250.6967659402035 396.63979143147435" stroke-miterlimit="10"/></g><g transform="translate(-406,-102) scale(1,1)"><path fill="#C0C0C0" stroke="none" d="M 1177 479 L 1216 479 Q 1226 479 1226 489 L 1226 522 Q 1226 532 1216 532 L 1177 532 Q 1167 532 1167 522 L 1167 489 Q 1167 479 1177 479 Z" opacity="0.2"/></g><g transform="translate(-406,-102) scale(1,1)"><path fill="#ffffff" stroke="none" d="M 1170 472 L 1209 472 Q 1219 472 1219 482 L 1219 515 Q 1219 525 1209 525 L 1170 525 Q 1160 525 1160 515 L 1160 482 Q 1160 472 1170 472 Z"/></g><g transform="translate(-406,-102) scale(1,1)"><path fill="none" stroke="#000000" d="M 1170 472 L 1209 472 Q 1219 472 1219 482 L 1219 515 Q 1219 525 1209 525 L 1170 525 Q 1160 525 1160 515 L 1160 482 Q 1160 472 1170 472 Z" stroke-miterlimit="10"/></g><g transform="translate(-406,-102) scale(1,1)"><g><path fill="none" stroke="none"/><text fill="#000000" stroke="none" font-family="Arial" font-size="13px" font-style="normal" font-weight="bold" text-decoration="none" x="1172" y="491.5">Throw</text><text fill="#000000" stroke="none" font-family="Arial" font-size="13px" font-style="normal" font-weight="bold" text-decoration="none" x="1175.5" y="504.5">Error</text></g></g><g transform="translate(-406,-102) scale(1,1)"><path fill="#C0C0C0" stroke="none" d="M 1225 559 L 1284 559 Q 1294 559 1294 569 L 1294 602 Q 1294 612 1284 612 L 1225 612 Q 1215 612 1215 602 L 1215 569 Q 1215 559 1225 559 Z" opacity="0.2"/></g><g transform="translate(-406,-102) scale(1,1)"><path fill="#ffffff" stroke="none" d="M 1218 552 L 1277 552 Q 1287 552 1287 562 L 1287 595 Q 1287 605 1277 605 L 1218 605 Q 1208 605 1208 595 L 1208 562 Q 1208 552 1218 552 Z"/></g><g transform="translate(-406,-102) scale(1,1)"><path fill="none" stroke="#000000" d="M 1218 552 L 1277 552 Q 1287 552 1287 562 L 1287 595 Q 1287 605 1277 605 L 1218 605 Q 1208 605 1208 595 L 1208 562 Q 1208 552 1218 552 Z" stroke-miterlimit="10"/></g><g transform="translate(-406,-102) scale(1,1)"><g><path fill="none" stroke="none"/><text fill="#000000" stroke="none" font-family="Arial" font-size="13px" font-style="normal" font-weight="bold" text-decoration="none" x="1222" y="571.5">Evaluate</text><text fill="#000000" stroke="none" font-family="Arial" font-size="13px" font-style="normal" font-weight="bold" text-decoration="none" x="1215" y="584.5">Expression</text></g></g><g transform="translate(-406,-102) scale(1,1)"><path fill="none" stroke="#000000" d="M 1248 449 L 1247 551" stroke-miterlimit="10"/></g><g transform="translate(-406,-102) scale(1,1)"><path fill="none" stroke="#000000" d="M 1242.8903138115732 540.7965457107579 L 1247 551 L 1251.3089447470647 540.8790813081646" stroke-miterlimit="10"/></g><g transform="translate(-406,-102) scale(1,1)"><g><path fill="none" stroke="none"/><text fill="#000000" stroke="none" font-family="Arial" font-size="13px" font-style="normal" font-weight="normal" text-decoration="none" x="1251" y="506">yes</text></g></g><g transform="translate(-406,-102) scale(1,1)"><path fill="none" stroke="#000000" d="M 1216 424 L 1192 424 L 1192 472" stroke-miterlimit="10"/></g><g transform="translate(-406,-102) scale(1,1)"><path fill="none" stroke="#000000" d="M 1187.7904822439841 461.83732514237585 L 1192 472 L 1196.2095177560159 461.83732514237585" stroke-miterlimit="10"/></g><g transform="translate(-406,-102) scale(1,1)"><g><path fill="none" stroke="none"/><text fill="#000000" stroke="none" font-family="Arial" font-size="13px" font-style="normal" font-weight="normal" text-decoration="none" x="1166" y="436">no</text></g></g><g transform="translate(-406,-102) scale(1,1)"><path fill="#C0C0C0" stroke="none" d="M 1033 559 L 1089 559 Q 1099 559 1099 569 L 1099 605 Q 1099 615 1089 615 L 1033 615 Q 1023 615 1023 605 L 1023 569 Q 1023 559 1033 559 Z" opacity="0.2"/></g><g transform="translate(-406,-102) scale(1,1)"><path fill="#ffffff" stroke="none" d="M 1026 552 L 1082 552 Q 1092 552 1092 562 L 1092 598 Q 1092 608 1082 608 L 1026 608 Q 1016 608 1016 598 L 1016 562 Q 1016 552 1026 552 Z"/></g><g transform="translate(-406,-102) scale(1,1)"><path fill="none" stroke="#000000" d="M 1026 552 L 1082 552 Q 1092 552 1092 562 L 1092 598 Q 1092 608 1082 608 L 1026 608 Q 1016 608 1016 598 L 1016 562 Q 1016 552 1026 552 Z" stroke-miterlimit="10"/></g><g transform="translate(-406,-102) scale(1,1)"><g><path fill="none" stroke="none"/><text fill="#000000" stroke="none" font-family="Arial" font-size="13px" font-style="normal" font-weight="bold" text-decoration="none" x="1023" y="571.5">Log Result</text></g></g><g transform="translate(-406,-102) scale(1,1)"><path fill="none" stroke="#000000" d="M 1208 580 L 1092 580" stroke-miterlimit="10"/></g><g transform="translate(-406,-102) scale(1,1)"><path fill="none" stroke="#000000" d="M 1102.162674857624 575.790482243984 L 1092 580 L 1102.162674857624 584.209517756016" stroke-miterlimit="10"/></g><g transform="translate(-406,-102) scale(1,1)"><g><path fill="none" stroke="none"/><text fill="#000000" stroke="none" font-family="Arial" font-size="13px" font-style="normal" font-weight="normal" text-decoration="none" x="1159" y="574">result</text></g></g><g transform="translate(-406,-102) scale(1,1)"><path fill="#C0C0C0" stroke="none" d="M 1049 639 L 1101 639 Q 1111 639 1111 649 L 1111 695 Q 1111 705 1101 705 L 1049 705 Q 1039 705 1039 695 L 1039 649 Q 1039 639 1049 639 Z" opacity="0.2"/></g><g transform="translate(-406,-102) scale(1,1)"><path fill="#ffffff" stroke="none" d="M 1042 632 L 1094 632 Q 1104 632 1104 642 L 1104 688 Q 1104 698 1094 698 L 1042 698 Q 1032 698 1032 688 L 1032 642 Q 1032 632 1042 632 Z"/></g><g transform="translate(-406,-102) scale(1,1)"><path fill="none" stroke="#000000" d="M 1042 632 L 1094 632 Q 1104 632 1104 642 L 1104 688 Q 1104 698 1094 698 L 1042 698 Q 1032 698 1032 688 L 1032 642 Q 1032 632 1042 632 Z" stroke-miterlimit="10"/></g><g transform="translate(-406,-102) scale(1,1)"><g><path fill="none" stroke="none"/><text fill="#000000" stroke="none" font-family="Arial" font-size="13px" font-style="normal" font-weight="bold" text-decoration="none" x="1038.5" y="651.5">Broadcast</text><text fill="#000000" stroke="none" font-family="Arial" font-size="13px" font-style="normal" font-weight="bold" text-decoration="none" x="1040" y="664.5">Result To</text><text fill="#000000" stroke="none" font-family="Arial" font-size="13px" font-style="normal" font-weight="bold" text-decoration="none" x="1042" y="677.5">Producer</text></g></g><g transform="translate(-406,-102) scale(1,1)"><path fill="#C0C0C0" stroke="none" d="M 1049 863 L 1101 863 Q 1111 863 1111 873 L 1111 932 Q 1111 942 1101 942 L 1049 942 Q 1039 942 1039 932 L 1039 873 Q 1039 863 1049 863 Z" opacity="0.2"/></g><g transform="translate(-406,-102) scale(1,1)"><path fill="#ffffff" stroke="none" d="M 1042 856 L 1094 856 Q 1104 856 1104 866 L 1104 925 Q 1104 935 1094 935 L 1042 935 Q 1032 935 1032 925 L 1032 866 Q 1032 856 1042 856 Z"/></g><g transform="translate(-406,-102) scale(1,1)"><path fill="none" stroke="#000000" d="M 1042 856 L 1094 856 Q 1104 856 1104 866 L 1104 925 Q 1104 935 1094 935 L 1042 935 Q 1032 935 1032 925 L 1032 866 Q 1032 856 1042 856 Z" stroke-miterlimit="10"/></g><g transform="translate(-406,-102) scale(1,1)"><g><path fill="none" stroke="none"/><text fill="#000000" stroke="none" font-family="Arial" font-size="13px" font-style="normal" font-weight="bold" text-decoration="none" x="1038.5" y="875.5">Broadcast</text><text fill="#000000" stroke="none" font-family="Arial" font-size="13px" font-style="normal" font-weight="bold" text-decoration="none" x="1040" y="888.5">Result To</text><text fill="#000000" stroke="none" font-family="Arial" font-size="13px" font-style="normal" font-weight="bold" text-decoration="none" x="1039" y="901.5">Response</text><text fill="#000000" stroke="none" font-family="Arial" font-size="13px" font-style="normal" font-weight="bold" text-decoration="none" x="1057.5" y="914.5">Log</text></g></g><g transform="translate(-406,-102) scale(1,1)"><path fill="none" stroke="#000000" d="M 1059 608 L 1059 632" stroke-miterlimit="10"/></g><g transform="translate(-406,-102) scale(1,1)"><path fill="none" stroke="#000000" d="M 1054.7904822439841 621.8373251423759 L 1059 632 L 1063.2095177560159 621.8373251423759" stroke-miterlimit="10"/></g><g transform="translate(-406,-102) scale(1,1)"><g><path fill="none" stroke="none"/><text fill="#000000" stroke="none" font-family="Arial" font-size="13px" font-style="normal" font-weight="normal" text-decoration="none" x="1071" y="626">result</text></g></g><g transform="translate(-406,-102) scale(1,1)"><path fill="none" stroke="#000000" d="M 1088 698 L 1088 856" stroke-miterlimit="10"/></g><g transform="translate(-406,-102) scale(1,1)"><path fill="none" stroke="#000000" d="M 1083.7904822439841 845.8373251423759 L 1088 856 L 1092.2095177560159 845.8373251423759" stroke-miterlimit="10"/></g><g transform="translate(-406,-102) scale(1,1)"><path fill="#C0C0C0" stroke="none" d="M 945 511 L 997 511 Q 1007 511 1007 521 L 1007 541 Q 1007 551 997 551 L 945 551 Q 935 551 935 541 L 935 521 Q 935 511 945 511 Z" opacity="0.2"/></g><g transform="translate(-406,-102) scale(1,1)"><path fill="#ffffff" stroke="none" d="M 938 504 L 990 504 Q 1000 504 1000 514 L 1000 534 Q 1000 544 990 544 L 938 544 Q 928 544 928 534 L 928 514 Q 928 504 938 504 Z"/></g><g transform="translate(-406,-102) scale(1,1)"><path fill="none" stroke="#000000" d="M 938 504 L 990 504 Q 1000 504 1000 514 L 1000 534 Q 1000 544 990 544 L 938 544 Q 928 544 928 534 L 928 514 Q 928 504 938 504 Z" stroke-miterlimit="10"/></g><g transform="translate(-406,-102) scale(1,1)"><g><path fill="none" stroke="none"/><text fill="#000000" stroke="none" font-family="Arial" font-size="13px" font-style="normal" font-weight="bold" text-decoration="none" x="937.5" y="523.5">Log Error</text></g></g><g transform="translate(-406,-102) scale(1,1)"><path fill="none" stroke="#000000" d="M 1160 496 L 1112 496 L 1112 520 L 1000 520" stroke-miterlimit="10"/></g><g transform="translate(-406,-102) scale(1,1)"><path fill="none" stroke="#000000" d="M 1010.1626748576241 515.790482243984 L 1000 520 L 1010.1626748576241 524.209517756016" stroke-miterlimit="10"/></g><g transform="translate(-406,-102) scale(1,1)"><path fill="#C0C0C0" stroke="none" d="M 561 839 L 613 839 Q 623 839 623 849 L 623 882 Q 623 892 613 892 L 561 892 Q 551 892 551 882 L 551 849 Q 551 839 561 839 Z" opacity="0.2"/></g><g transform="translate(-406,-102) scale(1,1)"><path fill="#ffffff" stroke="none" d="M 554 832 L 606 832 Q 616 832 616 842 L 616 875 Q 616 885 606 885 L 554 885 Q 544 885 544 875 L 544 842 Q 544 832 554 832 Z"/></g><g transform="translate(-406,-102) scale(1,1)"><path fill="none" stroke="#000000" d="M 554 832 L 606 832 Q 616 832 616 842 L 616 875 Q 616 885 606 885 L 554 885 Q 544 885 544 875 L 544 842 Q 544 832 554 832 Z" stroke-miterlimit="10"/></g><g transform="translate(-406,-102) scale(1,1)"><g><path fill="none" stroke="none"/><text fill="#000000" stroke="none" font-family="Arial" font-size="13px" font-style="normal" font-weight="bold" text-decoration="none" x="553.5" y="851.5">Log Error</text></g></g><g transform="translate(-406,-102) scale(1,1)"><path fill="#C0C0C0" stroke="none" d="M 561 919 L 611 919 Q 621 919 621 929 L 621 962 Q 621 972 611 972 L 561 972 Q 551 972 551 962 L 551 929 Q 551 919 561 919 Z" opacity="0.2"/></g><g transform="translate(-406,-102) scale(1,1)"><path fill="#ffffff" stroke="none" d="M 554 912 L 604 912 Q 614 912 614 922 L 614 955 Q 614 965 604 965 L 554 965 Q 544 965 544 955 L 544 922 Q 544 912 554 912 Z"/></g><g transform="translate(-406,-102) scale(1,1)"><path fill="none" stroke="#000000" d="M 554 912 L 604 912 Q 614 912 614 922 L 614 955 Q 614 965 604 965 L 554 965 Q 544 965 544 955 L 544 922 Q 544 912 554 912 Z" stroke-miterlimit="10"/></g><g transform="translate(-406,-102) scale(1,1)"><g><path fill="none" stroke="none"/><text fill="#000000" stroke="none" font-family="Arial" font-size="13px" font-style="normal" font-weight="bold" text-decoration="none" x="568.5" y="931.5">Log</text><text fill="#000000" stroke="none" font-family="Arial" font-size="13px" font-style="normal" font-weight="bold" text-decoration="none" x="550" y="944.5">Response</text></g></g><g transform="translate(-406,-102) scale(1,1)"><path fill="none" stroke="#000000" d="M 1040 698 L 1040 840 L 1016 840 L 1016 944 L 614 944" stroke-miterlimit="10"/></g><g transform="translate(-406,-102) scale(1,1)"><path fill="none" stroke="#000000" d="M 624.1626748576241 939.790482243984 L 614 944 L 624.1626748576241 948.209517756016" stroke-miterlimit="10"/></g><g transform="translate(-406,-102) scale(1,1)"><g><path fill="none" stroke="none"/><text fill="#000000" stroke="none" font-family="Arial" font-size="13px" font-style="normal" font-weight="normal" text-decoration="none" x="1046" y="717">result</text></g></g><g transform="translate(-406,-102) scale(1,1)"><path fill="#C0C0C0" stroke="none" d="M 929 575 L 980 575 Q 990 575 990 585 L 990 644 Q 990 654 980 654 L 929 654 Q 919 654 919 644 L 919 585 Q 919 575 929 575 Z" opacity="0.2"/></g><g transform="translate(-406,-102) scale(1,1)"><path fill="#ffffff" stroke="none" d="M 922 568 L 973 568 Q 983 568 983 578 L 983 637 Q 983 647 973 647 L 922 647 Q 912 647 912 637 L 912 578 Q 912 568 922 568 Z"/></g><g transform="translate(-406,-102) scale(1,1)"><path fill="none" stroke="#000000" d="M 922 568 L 973 568 Q 983 568 983 578 L 983 637 Q 983 647 973 647 L 922 647 Q 912 647 912 637 L 912 578 Q 912 568 922 568 Z" stroke-miterlimit="10"/></g><g transform="translate(-406,-102) scale(1,1)"><g><path fill="none" stroke="none"/><text fill="#000000" stroke="none" font-family="Arial" font-size="13px" font-style="normal" font-weight="bold" text-decoration="none" x="918" y="587.5">Broadcast</text><text fill="#000000" stroke="none" font-family="Arial" font-size="13px" font-style="normal" font-weight="bold" text-decoration="none" x="928.5" y="600.5">Invalid</text><text fill="#000000" stroke="none" font-family="Arial" font-size="13px" font-style="normal" font-weight="bold" text-decoration="none" x="940" y="613.5">To</text><text fill="#000000" stroke="none" font-family="Arial" font-size="13px" font-style="normal" font-weight="bold" text-decoration="none" x="921.5" y="626.5">Producer</text></g></g><g transform="translate(-406,-102) scale(1,1)"><path fill="none" stroke="#000000" d="M 928 647 L 928 816 L 576 816 L 576 832" stroke-miterlimit="10"/></g><g transform="translate(-406,-102) scale(1,1)"><path fill="none" stroke="#000000" d="M 571.790482243984 821.8373251423759 L 576 832 L 580.209517756016 821.8373251423759" stroke-miterlimit="10"/></g><g transform="translate(-406,-102) scale(1,1)"><g><path fill="none" stroke="none"/><text fill="#000000" stroke="none" font-family="Arial" font-size="13px" font-style="normal" font-weight="normal" text-decoration="none" x="936" y="677">expression</text></g></g><g transform="translate(-406,-102) scale(1,1)"><path fill="#C0C0C0" stroke="none" d="M 969 735 L 1020 735 Q 1030 735 1030 745 L 1030 817 Q 1030 827 1020 827 L 969 827 Q 959 827 959 817 L 959 745 Q 959 735 969 735 Z" opacity="0.2"/></g><g transform="translate(-406,-102) scale(1,1)"><path fill="#ffffff" stroke="none" d="M 962 728 L 1013 728 Q 1023 728 1023 738 L 1023 810 Q 1023 820 1013 820 L 962 820 Q 952 820 952 810 L 952 738 Q 952 728 962 728 Z"/></g><g transform="translate(-406,-102) scale(1,1)"><path fill="none" stroke="#000000" d="M 962 728 L 1013 728 Q 1023 728 1023 738 L 1023 810 Q 1023 820 1013 820 L 962 820 Q 952 820 952 810 L 952 738 Q 952 728 962 728 Z" stroke-miterlimit="10"/></g><g transform="translate(-406,-102) scale(1,1)"><g><path fill="none" stroke="none"/><text fill="#000000" stroke="none" font-family="Arial" font-size="13px" font-style="normal" font-weight="bold" text-decoration="none" x="958" y="747.5">Broadcast</text><text fill="#000000" stroke="none" font-family="Arial" font-size="13px" font-style="normal" font-weight="bold" text-decoration="none" x="968.5" y="760.5">Invalid</text><text fill="#000000" stroke="none" font-family="Arial" font-size="13px" font-style="normal" font-weight="bold" text-decoration="none" x="980" y="773.5">To</text><text fill="#000000" stroke="none" font-family="Arial" font-size="13px" font-style="normal" font-weight="bold" text-decoration="none" x="968.5" y="786.5">Invalid</text><text fill="#000000" stroke="none" font-family="Arial" font-size="13px" font-style="normal" font-weight="bold" text-decoration="none" x="977" y="799.5">Log</text></g></g><g transform="translate(-406,-102) scale(1,1)"><path fill="none" stroke="#000000" d="M 983 647 L 983 656 L 1008 656 L 1008 728" stroke-miterlimit="10"/></g><g transform="translate(-406,-102) scale(1,1)"><path fill="none" stroke="#000000" d="M 1003.790482243984 717.8373251423759 L 1008 728 L 1012.209517756016 717.8373251423759" stroke-miterlimit="10"/></g><g transform="translate(-406,-102) scale(1,1)"><path fill="none" stroke="#000000" d="M 960 544 L 960 568" stroke-miterlimit="10"/></g><g transform="translate(-406,-102) scale(1,1)"><path fill="none" stroke="#000000" d="M 955.790482243984 557.8373251423759 L 960 568 L 964.209517756016 557.8373251423759" stroke-miterlimit="10"/></g><g transform="translate(-406,-102) scale(1,1)"><path fill="none" stroke="#000000" d="M 472 368 L 472 416 L 520 416 L 520 368" stroke-miterlimit="10"/></g><g transform="translate(-406,-102) scale(1,1)"><path fill="none" stroke="#000000" d="M 524.209517756016 378.16267485762415 L 520 368 L 515.790482243984 378.16267485762415" stroke-miterlimit="10"/></g><g transform="translate(-406,-102) scale(1,1)"><g><path fill="none" stroke="none"/><text fill="#000000" stroke="none" font-family="Arial" font-size="13px" font-style="normal" font-weight="normal" text-decoration="none" x="447" y="437">Loop On Interval</text></g></g><g transform="translate(-406,-102) scale(1,1)"><path fill="none" stroke="#000000" d="M 521 163 L 521 192" stroke-miterlimit="10"/></g><g transform="translate(-406,-102) scale(1,1)"><path fill="none" stroke="#000000" d="M 516.790482243984 181.83732514237585 L 521 192 L 525.209517756016 181.83732514237585" stroke-miterlimit="10"/></g><g transform="translate(-406,-102) scale(1,1)"><g><path fill="none" stroke="none"/><text fill="#000000" stroke="none" font-family="Arial" font-size="13px" font-style="normal" font-weight="normal" text-decoration="none" x="527" y="183">Launch Process</text></g></g><g transform="translate(-406,-102) scale(1,1)"><path fill="#C0C0C0" stroke="none" d="M 1239 160.5 C 1239 155.2532944 1243.2532944 151 1248.5 151 C 1253.7467056 151 1258 155.2532944 1258 160.5 C 1258 165.7467056 1253.7467056 170 1248.5 170 C 1243.2532944 170 1239 165.7467056 1239 160.5 Z" opacity="0.2"/></g><g transform="translate(-406,-102) scale(1,1)"><path fill="#000000" stroke="none" d="M 1232 153.5 C 1232 148.2532944 1236.2532944 144 1241.5 144 C 1246.7467056 144 1251 148.2532944 1251 153.5 C 1251 158.7467056 1246.7467056 163 1241.5 163 C 1236.2532944 163 1232 158.7467056 1232 153.5 Z"/></g><g transform="translate(-406,-102) scale(1,1)"><path fill="#C0C0C0" stroke="none" d="M 1225 199 L 1278 199 Q 1288 199 1288 209 L 1288 242 Q 1288 252 1278 252 L 1225 252 Q 1215 252 1215 242 L 1215 209 Q 1215 199 1225 199 Z" opacity="0.2"/></g><g transform="translate(-406,-102) scale(1,1)"><path fill="#ffffff" stroke="none" d="M 1218 192 L 1271 192 Q 1281 192 1281 202 L 1281 235 Q 1281 245 1271 245 L 1218 245 Q 1208 245 1208 235 L 1208 202 Q 1208 192 1218 192 Z"/></g><g transform="translate(-406,-102) scale(1,1)"><path fill="none" stroke="#000000" d="M 1218 192 L 1271 192 Q 1281 192 1281 202 L 1281 235 Q 1281 245 1271 245 L 1218 245 Q 1208 245 1208 235 L 1208 202 Q 1208 192 1218 192 Z" stroke-miterlimit="10"/></g><g transform="translate(-406,-102) scale(1,1)"><g><path fill="none" stroke="none"/><text fill="#000000" stroke="none" font-family="Arial" font-size="13px" font-style="normal" font-weight="bold" text-decoration="none" x="1215.5" y="211.5">Listen For</text><text fill="#000000" stroke="none" font-family="Arial" font-size="13px" font-style="normal" font-weight="bold" text-decoration="none" x="1215" y="224.5">Producers</text></g></g><g transform="translate(-406,-102) scale(1,1)"><path fill="none" stroke="#000000" d="M 1242 163 L 1242 192" stroke-miterlimit="10"/></g><g transform="translate(-406,-102) scale(1,1)"><path fill="none" stroke="#000000" d="M 1237.7904822439841 181.83732514237585 L 1242 192 L 1246.2095177560159 181.83732514237585" stroke-miterlimit="10"/></g><g transform="translate(-406,-102) scale(1,1)"><g><path fill="none" stroke="none"/><text fill="#000000" stroke="none" font-family="Arial" font-size="13px" font-style="normal" font-weight="normal" text-decoration="none" x="1247" y="183">Launch Process</text></g></g><g transform="translate(-406,-102) scale(1,1)"><path fill="none" stroke="#000000" d="M 561 216 L 1208 216" stroke-miterlimit="10"/></g><g transform="translate(-406,-102) scale(1,1)"><path fill="none" stroke="#000000" d="M 1197.837325142376 220.209517756016 L 1208 216 L 1197.837325142376 211.790482243984" stroke-miterlimit="10"/></g><g transform="translate(-406,-102) scale(1,1)"><path fill="none" stroke="#000000" d="M 1244 245 L 1244 288 L 520 288 L 520 320" stroke-miterlimit="10"/></g><g transform="translate(-406,-102) scale(1,1)"><path fill="none" stroke="#000000" d="M 515.790482243984 309.83732514237585 L 520 320 L 524.209517756016 309.83732514237585" stroke-miterlimit="10"/></g><g transform="translate(-406,-102) scale(1,1)"><path fill="#ffffff" stroke="none" d="M 784 232 L 857 232 L 867 242 L 867 270 L 784 270 L 784 232"/></g><g transform="translate(-406,-102) scale(1,1)"><path fill="none" stroke="#000000" d="M 784 232 L 857 232 L 867 242 L 867 270 L 784 270 L 784 232 L 784 232" stroke-miterlimit="10"/></g><g transform="translate(-406,-102) scale(1,1)"><path fill="none" stroke="#000000" d="M 857 232 L 857 242 L 867 242 L 857 232" stroke-miterlimit="10"/></g><g transform="translate(-406,-102) scale(1,1)"><g><path fill="none" stroke="none"/><text fill="#000000" stroke="none" font-family="Arial" font-size="13px" font-style="normal" font-weight="normal" text-decoration="none" x="789" y="250">Connection</text><text fill="#000000" stroke="none" font-family="Arial" font-size="13px" font-style="normal" font-weight="normal" text-decoration="none" x="789" y="263">Successful</text></g></g><g transform="translate(-406,-102) scale(1,1)"><path fill="none" stroke="#000000" d="M 826 272 L 826 288 L 881 288" stroke-miterlimit="10" stroke-dasharray="3"/></g></g></svg>